<svg width="1440" height="1024" viewBox="0 0 1440 1024" fill="none" xmlns="http://www.w3.org/2000/svg">
<g clip-path="url(#clip0)">
<path d="M0 0H1440V1024H0V0Z" fill="white"/>
<path d="M1448.68 702.927L0.583448 384.528" stroke="#CBD5E0" stroke-width="13.9771" stroke-linecap="square"/>
<path d="M1447.77 731.072L1298.32 748.587L820.198 844.923L246.916 788.873L5.22632 883.458L781.668 572.847" stroke="#CBD5E0" stroke-width="13.9771" stroke-linecap="square"/>
<path d="M860.899 831.938L781.753 558.661" stroke="#CBD5E0" stroke-width="13.9771" stroke-linecap="square"/>
<path d="M416.472 473.705L600.479 -73.9226" stroke="#CBD5E0" stroke-width="13.9771" stroke-linecap="square"/>
<path d="M1449.27 585.541L1304.62 263.572L1277.2 252.53L1179.22 286.238L433.809 476.862" stroke="#CBD5E0" stroke-width="13.9771" stroke-linecap="square"/>
<path d="M1293.96 255.517L1396.25 41.9724" stroke="#CBD5E0" stroke-width="13.9771" stroke-linecap="square"/>
<path d="M1317.11 297.851L1269.73 395.231L1249.01 398.129L1202.82 377.262L1196.9 354.076L1243.09 265.97" stroke="#CBD5E0" stroke-width="10.4828" stroke-linecap="square"/>
<path d="M1241.7 395.933L1222.28 403.355V383.942" stroke="#CBD5E0" stroke-width="10.4828"/>
<path d="M1223.19 404.686L1113.11 629.009" stroke="#CBD5E0" stroke-width="10.4828" stroke-linecap="square"/>
<path d="M1405.21 1094.76L1277.48 757.405L1190.18 666.937V648.26" stroke="#CBD5E0" stroke-width="13.9771" stroke-linecap="square"/>
<path d="M1289.48 791.619L1297.69 750.752L1289.48 669.018L1342.28 406.302L1363.4 398.129" stroke="#CBD5E0" stroke-width="13.9771"/>
<path d="M1363.4 985.656L1329.56 1053.14L1336.57 1070.59L1313.23 1081.06L1300.4 1053.14L913.032 862.327L890.864 848.365L844.193 857.673L832.526 890.251L882.696 1088.04" stroke="#CBD5E0" stroke-width="13.9771"/>
<path d="M1122.98 1091.78L1130.29 822.432L1146.12 782.788L1125.41 662.691L1130.29 599.727" stroke="#CBD5E0" stroke-width="13.9771" stroke-linecap="round" stroke-linejoin="round"/>
<path d="M1122.98 664.687L1110.11 624.924L857.381 408.566C857.381 408.566 843.341 338.396 837.491 338.396C831.64 338.396 809.41 345.413 809.41 345.413L831.64 417.922L782.499 565.279" stroke="#CBD5E0" stroke-width="13.9771"/>
<path d="M993.057 1084.31L903.458 839.591V826.711" stroke="#CBD5E0" stroke-width="13.9771"/>
<path d="M834.931 873.924L825.64 845.206" stroke="#CBD5E0" stroke-width="13.9771" stroke-linecap="square"/>
<path d="M618.981 1100.74L461.306 881.194L443.787 870.684L363.198 738.725L259.249 612.605C259.249 612.605 242.898 567.062 242.898 527.358C242.898 487.653 251.074 447.949 251.074 447.949L274.433 338.178L200.851 97.6162L247.57 -67.0403L331.663 -39.0137" stroke="#CBD5E0" stroke-width="13.9771"/>
<path d="M375.57 -22.9873L762.664 113.341L922.399 171.602L963.207 194.906L1066.98 313.756" stroke="#CBD5E0" stroke-width="13.9771"/>
<path d="M707.676 -68.6962L826.71 337.812" stroke="#CBD5E0" stroke-width="13.9771" stroke-linecap="square"/>
<path d="M842.07 334.08L1115.67 -75.4165" stroke="#CBD5E0" stroke-width="13.9771" stroke-linecap="square"/>
<path d="M808.795 344.531L2.07686 95.5691" stroke="#CBD5E0" stroke-width="13.9771" stroke-linecap="square"/>
<path d="M984.098 897.645L1010.23 840.293L1004.55 811.032" stroke="#CBD5E0" stroke-width="6.98856"/>
<path d="M1119.99 968.577L959.458 994.71" stroke="#CBD5E0" stroke-width="6.98856"/>
<path d="M770.553 1084.31L851.939 978.283" stroke="#CBD5E0" stroke-width="6.98856"/>
<path d="M918.391 884.951L890.083 894.346C890.083 894.346 901.878 931.924 907.776 949.539C913.673 967.154 883.006 975.374 877.109 958.933C871.211 942.493 859.416 903.74 859.416 903.74L837.005 910.786" stroke="#CBD5E0" stroke-width="6.98856"/>
<path d="M932.578 937.964L906.445 948.417" stroke="#CBD5E0" stroke-width="6.98856"/>
<path d="M876.579 956.666L856.758 964.844L725.007 959.002L729.67 891.241L573.435 874.884V666.926" stroke="#CBD5E0" stroke-width="6.98856"/>
<path d="M830.286 872.258L801.225 885.399L727.993 890.178" stroke="#CBD5E0" stroke-width="6.98856"/>
<path d="M698.829 1088.04L713.94 1036.7L648.847 1000.53L677.907 750.846L669.77 619L668.608 557.161L701.154 412.481L863.885 156.958" stroke="#CBD5E0" stroke-width="6.98856"/>
<path d="M713.807 1033.54L726.5 959.617" stroke="#CBD5E0" stroke-width="6.98856"/>
<path d="M650.341 1000.82L562.217 957.657L574.972 875.991L551.781 1006.66" stroke="#CBD5E0" stroke-width="6.98856"/>
<path d="M581.648 1073.86C581.648 1073.86 512.794 1069.14 505.791 1044.36C498.789 1019.58 513.961 986.543 522.13 978.283" stroke="#CBD5E0" stroke-width="6.98856"/>
<path d="M534.608 1088.04L428.583 1057.77L458.876 881.965" stroke="#CBD5E0" stroke-width="6.98856"/>
<path d="M574.928 874.302L513.496 887.191L483.359 881.333L496.109 833.294L499.586 816.89L467.132 811.032L453.222 873.131" stroke="#CBD5E0" stroke-width="6.98856"/>
<path d="M453.222 874.498L281.593 858.818H177.681L86.6124 863.643" stroke="#CBD5E0" stroke-width="6.98856"/>
<path d="M447.996 926.017L314.344 887.191" stroke="#CBD5E0" stroke-width="6.98856"/>
<path d="M2.98676 1072.36L148.003 1007.11L418.155 810.183L523.409 457.115" stroke="#CBD5E0" stroke-width="13.9771"/>
<path d="M430.076 1019.35L357.65 998.444L392.695 873.005" stroke="#CBD5E0" stroke-width="6.98856"/>
<path d="M442.769 964.844L292.721 926.885L271.784 922.284" stroke="#CBD5E0" stroke-width="6.98856"/>
<path d="M359.89 1084.31L341.97 1046.05L358.695 996.203" stroke="#CBD5E0" stroke-width="6.98856"/>
<path d="M347.197 1028.31L265.811 1005.02L285.862 959.603L291.76 925.832L294.119 901.377" stroke="#CBD5E0" stroke-width="6.98856"/>
<path d="M314.344 1019.35L321.063 989.484" stroke="#CBD5E0" stroke-width="6.98856"/>
<path d="M106.026 1084.31L137.669 1011.8L178.688 863.275L216.191 802.461L291.197 660.953" stroke="#CBD5E0" stroke-width="6.98856"/>
<path d="M240.425 1082.82L266.558 1005.16" stroke="#CBD5E0" stroke-width="6.98856"/>
<path d="M141.119 1008.9L21.4397 963.35L1.49326 993.714" stroke="#CBD5E0" stroke-width="6.98856"/>
<path d="M160.532 926.162L101.994 905.063L80.9199 855.831L14.1864 879.275L39.9432 930.851L21.211 964.844" stroke="#CBD5E0" stroke-width="6.98856"/>
<path d="M102.292 905.111L42.5597 931.244" stroke="#CBD5E0" stroke-width="6.98856"/>
<path d="M20.9064 1061.91L45.5461 973.804" stroke="#CBD5E0" stroke-width="6.98856"/>
<path d="M64.2127 1042.5L70.9326 1007.4" stroke="#CBD5E0" stroke-width="6.98856"/>
<path d="M8.21334 650.5L816.275 673.646L1186.44 663.231" stroke="#CBD5E0" stroke-width="6.98856"/>
<path d="M834.019 756.526L380.796 737.113" stroke="#CBD5E0" stroke-width="6.98856"/>
<path d="M480.849 807.299L576.421 440.689" stroke="#CBD5E0" stroke-width="6.98856"/>
<path d="M366.61 735.619L393.597 542.664L415.89 479.515" stroke="#CBD5E0" stroke-width="6.98856"/>
<path d="M427.836 708.74L429.025 660.957L459.942 488.475" stroke="#CBD5E0" stroke-width="6.98856"/>
<path d="M239.678 541.488L6.71987 489.968" stroke="#CBD5E0" stroke-width="6.98856"/>
<path d="M330.024 456.368L495.782 -0.587679" stroke="#CBD5E0" stroke-width="6.98856"/>
<path d="M1449.27 236.104L1397.92 217.455L1329.06 187.149L1165.67 107.889L1039.63 40.2853L893.752 -69.2799" stroke="#CBD5E0" stroke-width="6.98856"/>
<path d="M1352.95 366.769L1402.81 219.881L1451.51 119.625" stroke="#CBD5E0" stroke-width="6.98856"/>
<path d="M760.1 109.171L844.472 -72.267" stroke="#CBD5E0" stroke-width="6.98856"/>
<path d="M1042.34 796.845L1070.71 311.516" stroke="#CBD5E0" stroke-width="6.98856"/>
<path d="M1254.5 728.152L1252.15 663.815L1324.89 387.75L1350.71 377.222" stroke="#CBD5E0" stroke-width="6.98856"/>
<path d="M1453 611.674L1050.71 572.244L904.952 557.168" stroke="#CBD5E0" stroke-width="6.98856"/>
<path d="M900.808 823.725L883.298 731.541L897.306 590.349L899.641 551.842L926.489 466.659L966.178 340.636" stroke="#CBD5E0" stroke-width="13.9771"/>
<path d="M643.621 290.61V267.479L680.954 172.638" stroke="#CBD5E0" stroke-width="6.98856"/>
<path d="M701.86 119.625L735.46 27.7858" stroke="#CBD5E0" stroke-width="6.98856"/>
<path d="M781.006 -68.5336L747.138 9.44839L735.46 10.6123" stroke="#CBD5E0" stroke-width="13.9771"/>
<path d="M730.233 29.0821L719.806 31.5186L691.999 20.5544L663.034 8.3721" stroke="#CBD5E0" stroke-width="6.98856"/>
<path d="M686.18 -65.5468L591.323 227.718L574.928 439.195" stroke="#CBD5E0" stroke-width="6.98856"/>
<path d="M789.966 220.424L731.532 229.384L440.529 228.104" stroke="#CBD5E0" stroke-width="6.98856"/>
<path d="M273.277 329.436L365.116 9.86561" stroke="#CBD5E0" stroke-width="6.98856"/>
<path d="M345.703 198.771L417.866 3.84937L424.849 -4.32098" stroke="#CBD5E0" stroke-width="6.98856"/>
<path d="M419.623 3.1458L347.556 12.5851L204.585 98.7183" stroke="#CBD5E0" stroke-width="6.98856"/>
<path d="M5.22651 153.225L214.38 50.7231L338.237 -21.4938" stroke="#CBD5E0" stroke-width="6.98856"/>
<path d="M110.505 835.671L124.957 659.347L147.838 525.061" stroke="#CBD5E0" stroke-width="6.98856"/>
<path d="M247.144 580.314L138.94 577.178L40.044 576.133L7.46647 575.087" stroke="#CBD5E0" stroke-width="6.98856"/>
<path d="M33.5994 649.006L49.2793 502.661" stroke="#CBD5E0" stroke-width="6.98856"/>
<path d="M82.8793 505.648L107.519 410.076" stroke="#CBD5E0" stroke-width="6.98856"/>
<path d="M89.599 405.595L142.612 273.436" stroke="#CBD5E0" stroke-width="6.98856"/>
<path d="M264.317 315.25C244.502 315.25 162.91 285.024 162.91 285.024L141.929 272.237L6.71973 223.411" stroke="#CBD5E0" stroke-width="6.98856"/>
<path d="M700.109 405.595L696.634 312.089L763.833 128.584" stroke="#CBD5E0" stroke-width="6.98856"/>
<path d="M635.905 425.009L637.15 229.384" stroke="#CBD5E0" stroke-width="6.98856"/>
<path d="M1214.82 236.104L1318.62 23.7102C1318.62 23.7102 1326.79 -4.29775 1343.11 -8.96575C1359.44 -13.6337 1393.27 -8.96575 1393.27 -8.96575" stroke="#CBD5E0" stroke-width="6.98856"/>
<path d="M1447.77 56.3751L1437.29 59.8921L1353.46 18.8607L1302.23 23.55L1114.76 -65.5468" stroke="#CBD5E0" stroke-width="13.9771"/>
<path d="M1084.15 575.087L1151.35 298.077" stroke="#CBD5E0" stroke-width="6.98856"/>
<path opacity="0.4" d="M1146.69 546.714L1140.9 538.511L1184.95 293.586L1181.47 285.383" stroke="#CBD5E0" stroke-width="6.98856"/>
<path d="M1449.27 940.204L1415.45 886.635L1346.65 813.268L1345.48 796.964V746.889L1355.98 684.003L1393.29 503.497L1401.46 501.168" stroke="#CBD5E0" stroke-width="6.98856"/>
<path d="M739.193 271.197L792.765 212.856L833.526 140.514L916.213 -55.5112L924.365 -73.0134" stroke="#CBD5E0" stroke-width="6.98856"/>
<path d="M747.406 325.703L734.713 230.13" stroke="#CBD5E0" stroke-width="6.98856"/>
<path d="M366.61 129.394L330.388 121.118L213.545 135.305" stroke="#CBD5E0" stroke-width="6.98856"/>
<path d="M1043.83 708.74L818.339 699.78" stroke="#CBD5E0" stroke-width="6.98856"/>
<path d="M943.778 705.753L841.485 751.299" stroke="#CBD5E0" stroke-width="6.98856"/>
<path d="M168.745 812.525L181.438 657.22" stroke="#CBD5E0" stroke-width="6.98856"/>
<path d="M162.025 819.992L108.31 809.912L6.71965 804.312" stroke="#CBD5E0" stroke-width="6.98856"/>
<path d="M206.078 54.665L180.505 46.3896L132.846 45.2073L25.904 20.3809L1.49334 12.1054" stroke="#CBD5E0" stroke-width="6.98856"/>
<path d="M200.852 98.7183L146.345 -72.2668" stroke="#CBD5E0" stroke-width="6.98856"/>
<path d="M35.0928 -63.3072L2.9864 190.557" stroke="#CBD5E0" stroke-width="6.98856"/>
<path d="M97.0656 248.05L125.439 135.305" stroke="#CBD5E0" stroke-width="6.98856"/>
<path d="M239.678 246.557L112.746 201.01" stroke="#CBD5E0" stroke-width="6.98856"/>
<path d="M229.225 212.844L219.829 215.197L116.479 176.371" stroke="#CBD5E0" stroke-width="6.98856"/>
<path d="M56.7461 239.837L21.6531 181.597" stroke="#CBD5E0" stroke-width="6.98856"/>
<path d="M112.746 132.318L3.73326 192.051" stroke="#CBD5E0" stroke-width="6.98856"/>
<path d="M238.185 -31.947C231.225 -26.0804 173.225 17.3325 173.225 17.3325" stroke="#CBD5E0" stroke-width="6.98856"/>
<path d="M167.252 3.14551L29.8663 -22.9876" stroke="#CBD5E0" stroke-width="6.98856"/>
<path fill-rule="evenodd" clip-rule="evenodd" d="M698.447 174.131L716.047 124.736L689.06 114.398L682.02 118.993L666.767 164.941L698.447 174.131Z" stroke="#CBD5E0" stroke-width="6.98856"/>
<path d="M601.061 192.051L518.182 159.944" stroke="#CBD5E0" stroke-width="6.98856"/>
<path d="M564.475 177.864L604.794 61.3853" stroke="#CBD5E0" stroke-width="6.98856"/>
<path d="M449.489 366.769L274.771 336.903" stroke="#CBD5E0" stroke-width="6.98856"/>
<path d="M523.409 386.182L456.209 366.769" stroke="#CBD5E0" stroke-width="6.98856"/>
<path d="M954.231 339.889L809.379 242.823" stroke="#CBD5E0" stroke-width="6.98856"/>
<path d="M659.301 8.37207L592.101 -48.3741" stroke="#CBD5E0" stroke-width="6.98856"/>
<path d="M648.847 36.7456L583.888 -20.0005" stroke="#CBD5E0" stroke-width="6.98856"/>
<path d="M989.324 230.877L929.591 324.209" stroke="#CBD5E0" stroke-width="6.98856"/>
<path d="M1061.75 301.063L1169.27 105.438" stroke="#CBD5E0" stroke-width="6.98856"/>
<path d="M751.14 672.478C751.14 666.638 751.14 601.22 751.14 601.22H713.807V673.646" stroke="#CBD5E0" stroke-width="6.98856"/>
<path d="M613.777 636.313L624.208 598.932L618.413 586.083L546.555 563.887" stroke="#CBD5E0" stroke-width="6.98856"/>
<path d="M532.368 599.727L375.782 551.941L361.759 585.741L244.904 562.43" stroke="#CBD5E0" stroke-width="6.98856"/>
<path d="M244.904 578.934C239.077 578.934 149.332 654.233 149.332 654.233L163.318 576.581" stroke="#CBD5E0" stroke-width="6.98856"/>
<path d="M63.4658 655.726L46.9941 738.191L34.0519 739.352L24.6395 802.072" stroke="#CBD5E0" stroke-width="6.98856"/>
<path d="M33.5996 738.606L7.46651 723.581L19.965 654.233" stroke="#CBD5E0" stroke-width="6.98856"/>
<path d="M969.911 668.419L978.871 601.22" stroke="#CBD5E0" stroke-width="6.98856"/>
<path d="M1058.02 509.381L966.178 496.688" stroke="#CBD5E0" stroke-width="6.98856"/>
<path d="M895.992 553.874L874.965 560.901L751.14 449.649" stroke="#CBD5E0" stroke-width="6.98856"/>
<path d="M781.006 560.901L727.993 371.996" stroke="#CBD5E0" stroke-width="6.98856"/>
<path d="M1202.87 375.729H1178.37L1072.2 318.983" stroke="#CBD5E0" stroke-width="6.98856"/>
<path d="M1153.89 549.701C1153.89 545.019 1142.39 536.825 1142.39 536.825L1184.95 293.356L1182.65 281.65" stroke="#CBD5E0" stroke-width="6.98856"/>
<path d="M1447.77 329.436L1403.26 452.442L1372.8 465.328L1265.03 413.783L1252.15 397.382" stroke="#CBD5E0" stroke-width="6.98856"/>
<path d="M1283.51 536.261L1181.22 492.208" stroke="#CBD5E0" stroke-width="6.98856"/>
<path d="M1205.86 587.034L1239.46 516.848" stroke="#CBD5E0" stroke-width="6.98856"/>
<path d="M1371.61 585.541L1309.64 569.861" stroke="#CBD5E0" stroke-width="6.98856"/>
<path d="M636.901 523.567L586.128 440.688" stroke="#CBD5E0" stroke-width="6.98856"/>
<path d="M639.141 425.009L654.074 479.293L624.208 498.928" stroke="#CBD5E0" stroke-width="6.98856"/>
<path d="M472.635 307.489L444.772 298.077L271.784 336.903" stroke="#CBD5E0" stroke-width="6.98856"/>
<path d="M443.516 232.37C443.516 237.086 443.516 299.57 443.516 299.57" stroke="#CBD5E0" stroke-width="6.98856"/>
<path d="M384.53 306.29L288.957 272.69" stroke="#CBD5E0" stroke-width="6.98856"/>
<path d="M471.142 292.85L400.956 268.21" stroke="#CBD5E0" stroke-width="6.98856"/>
<path d="M613.754 156.958L532.368 127.092" stroke="#CBD5E0" stroke-width="6.98856"/>
<path d="M581.648 349.495L537.062 343.623L507.729 456.368" stroke="#CBD5E0" stroke-width="6.98856"/>
<path d="M516.688 425.009L437.543 396.636" stroke="#CBD5E0" stroke-width="6.98856"/>
<path d="M542.822 449.648L565.968 347.356" stroke="#CBD5E0" stroke-width="6.98856"/>
<path d="M146.345 518.341L160.312 472.795L225.491 482.138" stroke="#CBD5E0" stroke-width="6.98856"/>
<path d="M123.47 513.115L130.598 465.992L144.852 470.704L118.719 460.102" stroke="#CBD5E0" stroke-width="6.98856"/>
<path d="M47.7861 395.143L97.0657 245.064" stroke="#CBD5E0" stroke-width="6.98856"/>
<path d="M288.957 188.317L229.224 203.997" stroke="#CBD5E0" stroke-width="6.98856"/>
<path d="M59.7327 858.818L68.6926 809.538" stroke="#CBD5E0" stroke-width="6.98856"/>
<path d="M1004.35 500.421C1004.35 488.743 1012.47 465.386 1012.47 465.386L957.965 454.875" stroke="#CBD5E0" stroke-width="6.98856"/>
<path d="M1015.35 329.436L996.791 409.222L1011.87 439.729L1061.75 444.422" stroke="#CBD5E0" stroke-width="6.98856"/>
<path d="M1229 294.343L1186.44 112.905" stroke="#CBD5E0" stroke-width="6.98856"/>
<path d="M1282.01 17.0644L1251.59 74.0781L970.716 -65.5473L951.991 -27.1503" stroke="#CBD5E0" stroke-width="6.98856"/>
<path d="M1167.78 105.438L1232.74 -12.5343" stroke="#CBD5E0" stroke-width="6.98856"/>
<path d="M1148.36 21.0659C1148.36 16.4336 1183.46 -35.6802 1183.46 -35.6802" stroke="#CBD5E0" stroke-width="6.98856"/>
<path d="M892.259 126.345L770.553 89.0117" stroke="#CBD5E0" stroke-width="6.98856"/>
<path d="M870.865 118.132L902.712 44.893L861.429 26.2927L821.326 106.507" stroke="#CBD5E0" stroke-width="6.98856"/>
<path d="M888.525 2.967L840.318 -21.4936L786.233 94.9854" stroke="#CBD5E0" stroke-width="6.98856"/>
<path d="M578.661 -70.7735L542.481 18.8257L458.449 -11.4286L473.621 -67.2826" stroke="#CBD5E0" stroke-width="6.98856"/>
<path d="M285.971 857.325L345.704 710.979" stroke="#CBD5E0" stroke-width="6.98856"/>
<path fill-rule="evenodd" clip-rule="evenodd" d="M1015.56 78.5421L1043.83 98.5692L1000.24 162.185L937.805 124.487L983.749 56.1589L1015.56 78.5421Z" stroke="#CBD5E0" stroke-width="6.98856"/>
<path d="M730.233 669.913L725.007 726.659" stroke="#CBD5E0" stroke-width="6.98856"/>
<path d="M483.089 276.423C487.673 276.423 523.2 274.059 523.2 274.059L532.368 262.237" stroke="#CBD5E0" stroke-width="6.98856"/>
</g>
<defs>
<clipPath id="clip0">
<path d="M0 0H1440V1024H0V0Z" fill="white"/>
</clipPath>
</defs>
</svg>
